<svg xmlns="http://www.w3.org/2000/svg" width="454" height="454" viewBox="0 0 454 454" version="1.1"><path d="" stroke="none" fill="#2c2c70" fill-rule="evenodd"/><path d="M 204.051 8.148 C 170.455 11.656, 133.997 24.794, 106.058 43.461 C 91.690 53.061, 82.080 61.131, 68.929 74.641 C 4.564 140.759, -11.265 240.776, 29.523 323.626 C 41.040 347.020, 54.793 365.750, 74.641 385.071 C 140.759 449.436, 240.776 465.265, 323.626 424.477 C 347.020 412.960, 365.750 399.207, 385.071 379.359 C 449.436 313.241, 465.265 213.224, 424.477 130.374 C 402.100 84.920, 363.008 46.995, 317.621 26.708 C 281.760 10.679, 242.016 4.184, 204.051 8.148 M 211.676 27.125 C 157.484 31.043, 105.521 58.379, 71.312 100.966 C 45.035 133.677, 29.806 172.412, 27.072 213.487 C 22.730 278.726, 50.389 342.060, 100.966 382.688 C 133.677 408.965, 172.412 424.194, 213.487 426.928 C 278.726 431.270, 342.060 403.611, 382.688 353.034 C 408.965 320.323, 424.194 281.588, 426.928 240.513 C 431.270 175.274, 403.611 111.940, 353.034 71.312 C 312.542 38.785, 263.298 23.392, 211.676 27.125 M 151.384 60.913 C 138.371 66.823, 134.982 89.228, 144.284 107.854 C 147.216 113.724, 156.090 121.739, 160.595 122.584 C 169.489 124.252, 176.976 119.921, 180.783 110.906 C 182.778 106.180, 183.021 104.172, 182.716 94.940 C 182.408 85.658, 181.994 83.585, 179.295 77.816 C 175.549 69.812, 170.285 63.801, 164.621 61.058 C 159.400 58.531, 156.694 58.502, 151.384 60.913 M 198.625 74.175 C 194.761 78.039, 193.014 83.143, 193.006 90.591 C 192.991 104.240, 200.660 115, 210.403 115 C 215.964 115, 218.938 113.050, 221.762 107.551 C 226.679 97.979, 224.181 82.445, 216.535 75.033 C 213.655 72.242, 212.126 71.592, 207.554 71.213 C 202.348 70.781, 201.855 70.945, 198.625 74.175 M 238.769 83.255 C 234.920 86.419, 232.688 92.428, 232.719 99.540 C 232.765 110.176, 238.493 118, 246.234 118 C 256.056 118, 261.252 102.526, 255.545 90.268 C 251.567 81.724, 244.318 78.693, 238.769 83.255 M 268.024 98.759 C 262.997 101.292, 260.534 106.182, 260.515 113.667 C 260.498 120.627, 262.726 124.795, 267.343 126.440 C 273.576 128.660, 280.931 120.868, 280.972 112 C 281.024 100.949, 275.298 95.093, 268.024 98.759 M 283.051 120.175 C 280.574 122.835, 279.548 127.777, 280.462 132.650 C 281.239 136.790, 285.878 142, 288.788 142 C 291.954 142, 295.871 138.205, 296.574 134.457 C 298.674 123.263, 289.349 113.415, 283.051 120.175 M 185.500 138.411 C 179.445 139.914, 171.454 143.906, 167.002 147.652 C 153.889 158.686, 155.265 186.666, 169.680 202.095 C 172.331 204.933, 180.125 211.847, 187 217.460 C 193.875 223.073, 201.851 230.239, 204.724 233.384 C 218.023 247.945, 221.624 270.037, 213.566 287.637 C 212.270 290.467, 206.600 299.245, 200.966 307.142 C 185.536 328.769, 182.226 337.504, 183.426 353.433 C 184.334 365.473, 185.702 371.408, 189.155 378.280 C 196.611 393.118, 210.988 399.846, 232.981 398.787 C 241.523 398.375, 243.825 397.868, 249.227 395.209 C 257.348 391.211, 264.228 384.266, 268.472 375.782 C 272.936 366.860, 273.691 362.386, 274.930 337.500 C 276.184 312.299, 276.383 311.468, 289.778 275.500 C 303.540 238.544, 305.798 228.566, 304.698 209.574 C 303.929 196.303, 302.523 190.010, 298.373 181.266 C 287.597 158.558, 263.353 143.698, 228.683 138.550 C 216.330 136.716, 192.637 136.640, 185.500 138.411" stroke="none" fill="#2c2474" fill-rule="evenodd"/></svg>